<?xml version="1.0" encoding="utf-8"?>
<!-- Generator: Adobe Illustrator 17.0.0, SVG Export Plug-In . SVG Version: 6.00 Build 0)  -->
<!DOCTYPE svg PUBLIC "-//W3C//DTD SVG 1.1//EN" "http://www.w3.org/Graphics/SVG/1.1/DTD/svg11.dtd">
<svg version="1.1" id="Capa_1" xmlns="http://www.w3.org/2000/svg" xmlns:xlink="http://www.w3.org/1999/xlink" x="0px" y="0px"
	 width="2412.252px" height="2412.252px" viewBox="0 0 2412.252 2412.252" enable-background="new 0 0 2412.252 2412.252"
	 xml:space="preserve">
<g>
	<path fill="#1D71B8" d="M991.963,2407.771c0.891-4.454,1.265-7.455,2.098-10.324c45.375-156.321,90.782-312.632,136.214-468.936
		c2.851-9.808,2.968-9.62,13.349-10.52c49.992-4.333,99.972-8.813,149.965-13.134c48.841-4.222,97.697-8.28,146.54-12.481
		c21.92-1.885,43.852-3.705,65.725-6.044c8.753-0.936,16.416,0.354,24.39,4.407c45.728,23.246,91.655,46.103,137.623,68.876
		c6.415,3.178,11.556,7.188,15.677,13.085c9.028,12.92,18.516,25.52,28.034,38.549c-2.622,3.493-4.85,6.586-7.206,9.579
		c-98.921,125.73-197.913,251.404-296.623,377.299c-5.559,7.09-11.159,9.863-20.185,9.843
		c-127.441-0.29-254.883-0.198-382.325-0.198C1001.403,2407.771,997.568,2407.771,991.963,2407.771z"/>
	<path fill="#2D2E83" d="M554.12,2042.317c1.991-1.525,3.861-2.855,5.619-4.32c28.742-23.952,57.533-47.846,86.138-71.959
		c4.649-3.919,9.404-5.886,15.536-6.399c60.003-5.026,119.977-10.395,179.967-15.567c49.224-4.244,98.466-8.283,147.689-12.542
		c39.608-3.427,79.196-7.077,118.799-10.555c6.073-0.533,12.18-0.674,19.765-1.075c-47.523,163.464-94.631,325.5-141.721,487.472
		c-111.59,0-221.969,0-333.536,0C619.693,2285.943,587.03,2164.59,554.12,2042.317z"/>
	<path fill="#7179B9" d="M1210.906,254.41c39.58-0.801,77.772-1.658,115.968-2.326c52.107-0.911,104.222-1.442,156.319-2.722
		c9.579-0.235,15.235,2.428,20.493,10.707c22.1,34.792,44.924,69.13,67.756,103.453c4.112,6.182,5.49,11.532,3.253,19.149
		c-29.818,101.516-59.226,203.151-88.679,304.773c-1.563,5.393-3.569,9.177-9.918,11.105
		c-97.407,29.581-194.708,59.51-292.039,89.339c-1.806,0.553-3.687,0.862-6.504,1.507
		c-42.096-63.162-84.135-126.237-126.582-189.926C1104.229,484.569,1157.455,369.731,1210.906,254.41z"/>
	<path fill="#C9E8F4" d="M6.04,1648.134c134.21-40.567,268.416-81.133,403.991-122.112
		c39.541,146.937,78.777,292.743,118.512,440.401c-174.818,15.16-348.265,30.201-522.502,45.311
		C6.04,1889.766,6.04,1769.403,6.04,1648.134z"/>
	<path fill="#0097C9" d="M1741.57,622.913c59.843,91.161,119.204,181.591,179.018,272.708c-3.558,3.105-6.647,5.907-9.847,8.578
		c-99.763,83.271-199.516,166.554-299.384,249.699c-4.034,3.359-8.87,6.371-13.841,7.904
		c-45.685,14.082-91.482,27.806-137.255,41.606c-1.459,0.44-3.013,0.568-5.241,0.972c-1.761-2.141-3.875-4.307-5.526-6.78
		c-23.109-34.597-46.025-69.322-69.343-103.777c-3.86-5.703-4.254-10.745-2.405-17.081
		c35.665-122.234,71.195-244.507,106.678-366.793c1.796-6.191,4.189-10.382,11.397-12.559
		c79.353-23.965,158.559-48.412,237.815-72.699C1735.808,624.024,1738.081,623.684,1741.57,622.913z"/>
	<path fill="#7179B9" d="M1028.195,1640.018c-3.72,3.335-6.19,5.691-8.805,7.874c-120.218,100.35-240.45,200.684-360.675,301.026
		c-4.445,3.71-8.738,7.253-15.071,7.757c-36.131,2.875-72.242,6.012-109.976,9.197c-39.702-146.596-78.966-293.174-118.672-440.684
		c4.138-1.535,7.548-3.011,11.082-4.078c72.725-21.972,145.491-43.807,218.154-65.981c6.828-2.084,12.385-1.677,18.696,1.493
		c118.907,59.723,237.898,119.279,356.866,178.881C1022.192,1636.705,1024.524,1638.04,1028.195,1640.018z"/>
	<path fill="#0097C9" d="M2413.11,1808.899c0,172.092,0,344.063,0,516.046c-8.489-1.278-406.746-199.214-429.948-213.763
		c1.134-3.271,2.188-6.83,3.582-10.253c34.685-85.208,69.511-170.359,103.94-255.671c3.046-7.547,6.93-10.183,15.03-10.837
		c57.706-4.66,115.357-9.992,173.036-15.002c43.453-3.774,86.92-7.393,130.385-11.042
		C2410.198,1808.288,2411.301,1808.648,2413.11,1808.899z"/>
	<path fill="#1D71B8" d="M408.749,1521.205c-134.642,40.697-268.348,81.112-403.365,121.922c0-11.944,0.609-22.33-0.108-32.625
		c-2.791-40.068,4.666-78.359,15.593-116.88c34.42-121.34,67.216-243.138,100.33-364.843c2.154-7.915,5.496-12.21,13.615-14.622
		c47.289-14.049,94.409-28.667,141.592-43.073c2.904-0.887,5.86-1.604,10.434-2.847
		C327.463,1219.179,367.96,1369.651,408.749,1521.205z"/>
	<path fill="#0097C9" d="M5.904,2407.771c0-130.822,0-260.066,0-390.968c174.37-15.37,348.675-30.298,523.403-45.494
		c1.388,4.297,2.701,7.865,3.693,11.518c4.234,15.591,7.908,31.353,12.735,46.756c2.542,8.11,1.122,13.025-5.651,18.557
		c-35.539,29.024-70.606,58.621-105.837,88.021c-104.801,87.456-209.667,174.836-314.273,262.524
		c-7.911,6.632-15.659,9.582-25.995,9.305c-25.075-0.673-50.181-0.219-75.274-0.219C14.894,2407.771,11.081,2407.771,5.904,2407.771
		z"/>
	<path fill="#3C5CA7" d="M1290.731,1428.736c2.701-2.531,4.546-4.437,6.57-6.129c23.972-20.034,48.118-39.866,71.859-60.168
		c5.816-4.974,11.172-6.475,18.788-4.974c58.275,11.488,116.62,22.628,174.996,33.604c7.266,1.366,12.36,4.068,16.656,10.537
		c91.656,138.023,183.562,275.881,275.41,413.777c1.487,2.233,2.864,4.538,4.901,7.776c-7.005,8.879-13.918,18.065-21.381,26.782
		c-1.707,1.994-5.24,3.108-8.054,3.379c-25.356,2.44-50.738,4.62-76.115,6.843c-41.526,3.639-83.081,6.969-124.559,11.085
		c-9.897,0.982-15.916-1.262-22.063-9.683c-101.798-139.457-204.01-278.613-306.125-417.84
		C1298.203,1439.074,1294.836,1434.392,1290.731,1428.736z"/>
	<path fill="#2D4D8F" d="M825.015,270.457c2.41,3.188,4.36,5.506,6.029,8.01c69.239,103.883,138.363,207.843,207.859,311.556
		c4.994,7.452,5.165,12.98,1.444,20.93c-38.517,82.296-76.684,164.755-114.69,247.288c-3.31,7.188-7.184,12.046-15.415,13.616
		c-7.503,1.431-14.727,4.317-23.054,6.86c-95.987-130.857-191.855-261.552-288.234-392.942
		C674.509,413.81,749.505,342.378,825.015,270.457z"/>
	<path fill="#2D4D8F" d="M1920.096,885.034c-2.157-3.051-4.407-6.041-6.457-9.162c-108.072-164.595-216.088-329.228-324.316-493.721
		c-4.602-6.994-6.057-12.997-3.521-21.278c10.479-34.217,20.178-68.671,30.203-103.027c0.956-3.276,2.182-6.473,3.521-10.404
		c106.236-1.792,212.293-3.581,319.986-5.397c-5.661,214.793-11.294,428.56-16.928,642.326
		C1921.755,884.593,1920.925,884.813,1920.096,885.034z"/>
	<path fill="#7179B9" d="M1995.835,241.111c140.067-2.309,278.062-4.583,416.872-6.871c0.426,3.446,1.1,6.364,1.102,9.282
		c0.058,77.39,0.001,154.779,0.142,232.169c0.011,5.812-1.4,10.033-6.087,13.929c-80.056,66.565-159.975,133.294-239.942,199.965
		c-1.393,1.161-3.008,2.058-5.667,3.853C2106.835,542.806,2051.757,393.103,1995.835,241.111z"/>
	<path fill="#7179B9" d="M885.2,884.601c6.041,8.245,11.465,15.65,17.198,23.474c-49.765,107.357-99.417,214.473-149.459,322.428
		c-12.334-2.226-24.037-4.223-35.695-6.46c-131.046-25.151-262.072-50.404-393.155-75.358c-7.728-1.471-12.026-3.847-13.962-12.231
		c-4.758-20.6-10.825-40.899-16.283-61.341c-0.679-2.544-0.858-5.222-1.439-8.922C489.811,1005.72,686.946,945.332,885.2,884.601z"
		/>
	<path fill="#36A9E1" d="M6.075,1042.47c0-338.052,0-674.432,0-1010.812C6.39,31.5,6.705,31.342,7.02,31.184
		c1.048,2.899,2.315,5.74,3.114,8.707c47.129,174.995,94.225,349.998,141.309,525.005c18.894,70.227,37.7,140.476,56.714,210.67
		c1.671,6.171,1.905,11.866,0.127,18.068c-6.573,22.931-12.929,45.929-18.973,69.004c-1.531,5.844-4.107,10.46-8.487,14.616
		c-55.661,52.827-111.206,105.776-166.808,158.665C11.915,1037.917,9.539,1039.627,6.075,1042.47z"/>
	<path fill="#3B61AB" d="M1491.916,1260.351c4.838-4.095,8.909-7.585,13.026-11.02c31.376-26.179,62.661-52.469,94.25-78.391
		c4.897-4.019,10.866-7.427,16.907-9.268c96.6-29.446,193.291-58.595,289.968-87.789c3.268-0.987,6.606-1.741,11.581-3.04
		c-3.365,127.102-6.702,253.087-10.057,379.805c-3.446,0-6.418,0.465-9.198-0.067c-93.146-17.829-186.273-35.759-279.406-53.658
		c-11.358-2.183-22.724-4.334-34.105-6.391c-5.139-0.929-9.047-3.026-12.119-7.684c-25.655-38.9-51.557-77.639-77.364-116.439
		C1494.348,1264.829,1493.498,1263.118,1491.916,1260.351z"/>
	<path fill="#0097C9" d="M1492.403,244.567c-217.146,3.549-432.229,7.451-647.323,10.603c-0.243-0.769-0.485-1.538-0.728-2.307
		c2.524-2.684,4.925-5.496,7.589-8.034c80.948-77.143,161.973-154.207,242.787-231.489c5.996-5.734,11.918-8.307,20.378-8.266
		c70.275,0.339,140.554,0.311,210.83,0.019c7.499-0.031,11.805,2.282,15.896,8.557c48.185,73.907,96.68,147.614,145.067,221.391
		C1488.535,237.535,1489.896,240.207,1492.403,244.567z"/>
	<path fill="#3B61AB" d="M1714.701,2015.87c3.456,4.521,6.272,8.077,8.953,11.732c50.611,68.968,101.184,137.964,151.858,206.885
		c3.068,4.173,6.919,7.774,10.976,12.273c-0.667,28.581-1.217,58.208-2.202,87.822c-0.147,4.435-2.165,8.858-3.617,13.186
		c-1.658,4.943-3.65,9.774-5.991,15.961c3.904-0.802,5.862-1.204,7.712-1.584c0,14.767,0,29.301,0,43.599
		c-9.458,2.562-446.242,3.642-472.729,1.389c-0.171-0.345-0.404-0.675-0.495-1.04c-0.084-0.338-0.163-0.813,0.005-1.058
		c1.951-2.843,3.825-5.753,5.954-8.46C1514.702,2270.001,1614.302,2143.445,1714.701,2015.87z"/>
	<path fill="#1D71B8" d="M1032.914,1636.404c-123.137-61.628-246.033-123.136-371.022-185.691c5.228-1.957,8.186-3.256,11.256-4.186
		c149.386-45.222,298.786-90.397,448.158-135.665c6.044-1.832,11.757-2.294,18.06-0.969c19.987,4.203,40.054,8.07,60.182,11.538
		c5.526,0.952,8.896,3.609,11.988,7.857c19.035,26.158,38.103,52.295,57.454,78.22c3.806,5.099,4.654,9.632,3.229,15.911
		c-2.851,12.565-9.253,21.737-19.327,30.047c-69.867,57.643-139.261,115.854-208.816,173.874
		C1040.549,1630.284,1036.943,1633.136,1032.914,1636.404z"/>
	<path fill="#7179B9" d="M822.256,266.019C693.095,389.341,563.647,512.365,433.923,636.034c-2.924-3.535-5.172-6.087-7.239-8.776
		c-38.984-50.711-77.909-101.467-116.97-152.118c-3.93-5.095-6.504-9.655-4.542-16.686c17.16-61.503,33.962-123.104,50.903-184.668
		c0.401-1.459,1.18-2.815,2.293-5.409c25.38-0.356,51.104-0.652,76.825-1.095c25.852-0.445,51.701-1.084,77.554-1.546
		c25.854-0.462,51.71-0.793,77.565-1.21c25.469-0.411,50.938-0.841,76.407-1.296c25.852-0.462,51.702-1.065,77.556-1.424
		c25.533-0.355,51.089-1.333,76.596-0.421C821.331,262.929,821.794,264.474,822.256,266.019z"/>
	<path fill="#56BFCA" d="M290.418,1060.317c-1.101-3.415-2.398-6.927-3.368-10.527c-18.113-67.189-36.035-134.431-54.467-201.533
		c-2.248-8.183-0.751-13.106,5.391-18.913c62.719-59.294,125.116-118.926,187.622-178.444c2.201-2.096,4.602-3.981,7.73-6.669
		c77.164,100.485,154.008,200.553,230.897,300.679C656.259,949.973,306.368,1057.904,290.418,1060.317z"/>
	<path fill="#8DC8E0" d="M750.191,1235.295c-1.857,4.555-2.885,7.402-4.153,10.139c-29.76,64.249-59.625,128.448-89.203,192.78
		c-2.959,6.437-6.712,10.293-13.704,12.38c-73.5,21.944-146.906,44.199-220.346,66.34c-2.549,0.769-5.187,1.245-9.407,2.242
		c-32.788-121.827-65.498-243.362-98.856-367.308C460.753,1179.604,604.693,1207.493,750.191,1235.295z"/>
	<path fill="#3C5CA7" d="M647.155,2407.31c-176.44,0-351.215,0-525.924,0c-0.252-0.459-0.514-0.778-0.6-1.139
		c-0.077-0.322-0.094-0.81,0.094-1.017c1.277-1.41,2.498-2.906,3.951-4.118c141.156-117.816,282.331-235.61,425.2-354.819
		C582.704,2167.031,614.593,2286.382,647.155,2407.31z"/>
	<path fill="#09A4CE" d="M2413.185,2332.835c0,25.386,0,49.491,0,74.26c-175.275,0-349.874,0-525.364,0
		c0-9.264,0.337-18.01-0.063-26.721c-1.239-27.037,5.336-52.01,15.995-76.913c24.822-57.994,47.936-116.716,71.763-175.134
		c1.441-3.533,3.072-6.989,5.24-11.894C2125.077,2188.656,2268.944,2260.652,2413.185,2332.835z"/>
	<path fill="#0097C9" d="M1912.474,1452.69c3.384-127.967,6.75-255.261,10.15-383.827c30.838-9.331,61.65-18.654,93.181-28.195
		c69.97,106.589,139.448,212.431,208.938,318.289c-2.412,3.287-4.146,5.8-6.029,8.196c-30.959,39.395-62.039,78.697-92.796,118.248
		c-4.299,5.529-8.09,7.366-15.408,5.925c-62.435-12.297-124.981-24.033-187.487-35.974
		C1920.002,1454.775,1917.046,1453.855,1912.474,1452.69z"/>
	<path fill="#3C5CA7" d="M595.286,489.268c95.702,130.473,190.819,260.148,286.841,391.058
		c-71.092,21.788-140.666,43.111-211.397,64.788c-77.818-101.333-155.626-202.653-234.042-304.765
		C489.64,589.907,542.032,539.998,595.286,489.268z"/>
	<path fill="#1D71B8" d="M429.823,5.268c5.139,0,8.594,0,12.048,0c65.264,0,130.529,0.145,195.792-0.182
		c8.271-0.041,13.202,2.479,17.79,9.415c50.808,76.81,101.953,153.399,152.982,230.064c2.06,3.094,3.879,6.348,6.864,11.263
		c-152.76,2.553-303.722,5.076-456.348,7.627C382.801,176.569,406.192,91.355,429.823,5.268z"/>
	<path fill="#8DC8E0" d="M2158.443,697.544c-76.677,63.973-152.673,127.377-231.077,192.79
		c5.732-217.359,11.387-431.807,17.079-647.682c15.474,0,30.286,0,46.623,0C2046.438,393.136,2102.218,544.736,2158.443,697.544z"/>
	<path fill="#8DC8E0" d="M1609.851,1872.42c-13.546,1.326-24.585,2.493-35.641,3.468c-16.138,1.423-32.272,3.012-48.444,3.846
		c-4.291,0.221-9.077-1.331-13.02-3.297c-86.235-42.991-172.384-86.156-258.55-129.286c-20.31-10.166-40.622-20.328-61.693-30.872
		c1.112-4.385,2.004-8.395,3.146-12.333c23.666-81.617,47.527-163.178,70.857-244.89c3.264-11.431,8.433-20.368,20.573-26.638
		C1394.011,1578.187,1501.164,1724.259,1609.851,1872.42z"/>
	<path fill="#36A9E1" d="M758.145,1231.189c49.321-106.39,98.115-211.643,147.68-318.561
		c92.149,125.63,183.142,249.685,275.137,375.104c-17.766,5.346-33.756,10.693-50.07,14.738c-4.822,1.196-10.597-1.091-15.874-2.102
		c-115.47-22.141-230.933-44.323-346.391-66.527C765.639,1233.266,762.715,1232.355,758.145,1231.189z"/>
	<path fill="#3C5CA7" d="M1948.041,109.506c0.876-34.801,1.724-68.526,2.567-102c8.742-2.701,448.123-3.392,462.493-0.821
		c0,73.157,0,146.453,0,221.552C2257.77,188.58,2103.115,149.096,1948.041,109.506z"/>
	<path fill="#1D71B8" d="M2413.377,491.376c0,142.879,0,282.907,0,423.848c-50.617,15.31-101.046,30.562-152.541,46.138
		c-32.242-87.614-64.223-174.52-96.487-262.194C2246.883,630.3,2329.065,561.726,2413.377,491.376z"/>
	<path fill="#7179B9" d="M2413.116,1802.953c-105.164,9.123-209.634,18.186-316.175,27.428
		c55.902-137.246,111.137-272.853,166.922-409.812c2.644,3.177,4.722,5.234,6.292,7.624
		c46.319,70.502,92.635,141.006,138.738,211.649c2.583,3.957,4.716,9.085,4.748,13.684c0.331,47.738,0.192,95.479,0.155,143.219
		C2413.795,1798.242,2413.479,1799.739,2413.116,1802.953z"/>
	<path fill="#8DC8E0" d="M212.007,770.924c-44.534-165.534-89.068-331.067-133.94-497.859c92.037-1.561,182.169-3.09,274.329-4.654
		c-46.303,168.662-92.156,335.687-138.009,502.712C213.594,771.056,212.8,770.99,212.007,770.924z"/>
	<path fill="#36A9E1" d="M1620.46,242.505c23.25-79.975,45.963-158.101,68.782-236.594c85.518,0,170.187,0,256.478,0
		c-2.003,76.997-3.989,153.309-6.016,231.223C1833.488,238.922,1728.015,240.696,1620.46,242.505z"/>
	<path fill="#7179B9" d="M1583.839,1395.233c107.706,20.664,215.413,41.329,323.004,61.971c0,8.161,0.151,15.04-0.023,21.91
		c-2.118,83.508-4.272,167.014-6.453,250.52c-0.321,12.313-0.685,24.629-1.348,36.926c-0.178,3.31-0.624,7.233-2.491,9.722
		c-10.369,13.824-21.215,27.292-33.159,42.487c-94.127-141.268-187.485-281.383-280.843-421.498
		C1582.964,1396.591,1583.401,1395.912,1583.839,1395.233z"/>
	<path fill="#C9E8F4" d="M2228.202,1364.239c10.642,16.227,20.179,31.147,30.154,45.77c3.37,4.94,0.837,8.803-0.845,12.943
		c-15.215,37.449-30.517,74.862-45.765,112.297c-38.774,95.192-77.636,190.348-116.101,285.663
		c-3.073,7.613-7.272,10.532-15.082,11.178c-54.243,4.486-108.457,9.31-162.689,13.927c-4.543,0.387-9.148,0.051-14.486,0.051
		c-0.36-2.508-1.074-5.041-1.03-7.56c0.319-18.095,0.989-36.186,1.105-54.28c0.039-6.144,1.997-10.934,5.759-15.709
		c104.263-132.326,208.421-264.734,312.615-397.114C2223.449,1369.356,2225.299,1367.493,2228.202,1364.239z"/>
	<path fill="#36A9E1" d="M2020.8,1039.124c79.741-24.107,157.505-47.616,236.08-71.371c1.414,2.972,2.895,5.549,3.909,8.296
		c27.283,73.95,54.467,147.937,81.862,221.846c2.078,5.606,1.938,9.7-1.99,14.647c-36.157,45.542-72.036,91.303-108.018,136.984
		c-1.139,1.446-2.504,2.715-4.719,5.091C2158.931,1249.53,2090.371,1145.097,2020.8,1039.124z"/>
	<path fill="#2D2E83" d="M830.016,267.802c2.943-7.668,8.533-7.32,13.98-7.409c39.343-0.642,78.686-1.285,118.028-1.976
		c74.44-1.309,148.88-2.658,223.32-3.965c5.764-0.101,11.531-0.013,19.227-0.013c-12.099,29.761-26.047,57.371-38.82,85.48
		c-12.892,28.369-26.169,56.564-39.279,84.834c-12.949,27.921-25.893,55.844-38.854,83.759
		c-13.063,28.134-26.144,56.26-39.957,85.981C974.214,484.245,901.913,375.72,830.016,267.802z"/>
	<path fill="#3C5CA7" d="M656.253,5.752c146.494,0,291.095,0,437.207,0c-2.02,2.792-3.157,5.004-4.86,6.627
		c-83.141,79.271-166.317,158.505-249.534,237.697c-9.042,8.604-15.311,8.277-21.62-1.176
		c-52.602-78.819-105.132-157.686-157.66-236.554C658.752,10.794,658.006,9.049,656.253,5.752z"/>
	<path fill="#3B61AB" d="M1683.989,6.058c-23.134,79.567-45.852,157.705-68.846,236.788c-9.813,0-19.029-0.145-28.239,0.027
		c-26.231,0.49-52.467,0.922-78.686,1.807c-6.61,0.223-10.5-2.101-14.055-7.539c-48.671-74.458-97.542-148.786-146.328-223.17
		c-1.402-2.138-2.406-4.536-4.17-7.914C1457.278,6.058,1569.715,6.058,1683.989,6.058z"/>
	<path fill="#C9E8F4" d="M1371.597,1080.684c-64.463-96.757-127.134-190.825-190.914-286.557
		c100.603-30.82,199.691-61.176,301.01-92.215C1444.809,828.808,1408.603,953.371,1371.597,1080.684z"/>
	<path fill="#3B61AB" d="M182.787,886.223c-58.361,212.596-116.723,425.192-175.084,637.788c-0.773-0.121-1.546-0.242-2.319-0.364
		c0-3.728,0-7.456,0-11.184c0-149.813,0.062-299.627-0.165-449.439c-0.013-8.341,2.186-14.196,8.395-20.051
		c52.743-49.738,105.136-99.845,157.648-149.827c2.969-2.825,6.062-5.52,9.098-8.275
		C181.169,885.322,181.978,885.772,182.787,886.223z"/>
	<path fill="#0097C9" d="M755.77,1236.37c120.627,23.15,240.148,46.087,359.67,69.025c0.004,0.732,0.007,1.463,0.011,2.195
		c-151.185,45.699-302.371,91.398-456.522,137.994C691.547,1374.435,723.521,1306.053,755.77,1236.37z"/>
	<path fill="#8DC8E0" d="M2413.346,1129.943c0,168.943,0,335.953,0,504.77c-2.58-2.856-4.422-4.432-5.7-6.377
		c-45.503-69.226-90.893-138.527-136.536-207.662c-3.404-5.155-3.685-9.267-1.395-14.841
		c26.186-63.734,52.125-127.569,78.209-191.344c1.441-3.524,3.135-7.106,5.455-10.086c18.469-23.725,37.113-47.315,55.735-70.92
		C2409.779,1132.64,2410.783,1132.064,2413.346,1129.943z"/>
	<path fill="#56BFCA" d="M1738.388,618.081c-83.563,25.594-164.901,50.505-248.45,76.095c6.403-28.061,15.101-53.678,22.346-79.658
		c7.227-25.915,15.032-51.669,22.57-77.498c7.646-26.198,15.289-52.397,22.91-78.602c7.467-25.676,14.905-51.359,22.356-77.04
		c0.857-0.154,1.714-0.308,2.571-0.463C1634.261,459.471,1685.833,538.026,1738.388,618.081z"/>
	<path fill="#2D4D8F" d="M1505.972,1881.621c-123.098,10.687-246.196,21.374-371.345,32.239
		c18.865-64.955,37.255-128.272,56.025-192.9c105.87,52.993,210.816,105.523,315.762,158.053
		C1506.267,1879.882,1506.119,1880.751,1505.972,1881.621z"/>
	<path fill="#2D2E83" d="M1977.877,2109.328c-28.243-14.12-54.707-27.35-81.676-40.833c1.907-72.007,3.798-143.376,5.728-216.234
		c62.197-5.383,123.704-10.707,187.267-16.208C2051.669,1928.178,2015.048,2018.079,1977.877,2109.328z"/>
	<path fill="#09A4CE" d="M228.361,831.807c-4.375-16.8-8.355-31.485-11.893-46.274c-0.569-2.378,0.644-5.276,1.348-7.847
		c26.925-98.263,53.885-196.517,80.859-294.767c0.686-2.498,1.589-4.936,2.444-7.569c7.78,5.768,109.64,136.634,128.381,164.851
		C363.125,703.429,296.588,766.813,228.361,831.807z"/>
	<path fill="#56BFCA" d="M1912.455,1458.261c68.447,13.14,134.993,25.916,203.82,39.129
		c-70.649,89.794-140.051,178.004-209.454,266.214c-0.781-0.184-1.562-0.367-2.343-0.551
		C1906.808,1661.935,1909.553,1560.827,1912.455,1458.261z"/>
	<path fill="#0097C9" d="M1172.748,791.326c-82.052,25.126-162.483,49.757-245.569,75.2
		c41.005-88.447,80.729-174.133,121.329-261.706C1090.476,667.821,1131.15,728.879,1172.748,791.326z"/>
	<path fill="#09A4CE" d="M2348.944,1200.893c-29.109-79.124-57.512-156.333-86.39-234.831
		c50.366-15.216,99.983-30.205,151.306-45.71c0,5.707,0,9.474,0,13.241c0,58.532-0.088,117.064,0.117,175.595
		c0.024,6.933-1.672,12.457-6.081,17.92c-17.185,21.295-33.945,42.93-50.899,64.409
		C2354.889,1194.188,2352.566,1196.69,2348.944,1200.893z"/>
	<path fill="#1D71B8" d="M2387.485,229.749c-130.955,2.161-261.91,4.322-393.396,6.492c-14.732-40.008-29.193-79.279-43.516-118.172
		c0.597-0.855,0.744-1.187,0.995-1.394c0.282-0.233,0.712-0.565,0.986-0.495c143.732,36.588,287.456,73.206,431.174,109.849
		c1.365,0.348,2.64,1.054,3.957,1.593C2387.618,228.331,2387.552,229.04,2387.485,229.749z"/>
	<path fill="#09A4CE" d="M1922.083,904.928c-1.442,53.005-2.885,106.009-4.357,160.13c-98.712,29.846-197.021,59.571-295.331,89.296
		c-0.397-0.668-0.794-1.335-1.192-2.003c99.424-82.959,198.848-165.918,298.272-248.877
		C1920.345,903.958,1921.214,904.443,1922.083,904.928z"/>
	<path fill="#56BFCA" d="M1187.55,1713.784c-50.143-25.083-98.722-49.384-146.944-73.506c-0.199-0.983-0.327-1.331-0.325-1.679
		c0.002-0.368-0.005-0.892,0.219-1.079c72.731-60.907,145.481-121.792,218.259-182.643c0.783-0.654,1.949-0.853,4.612-1.961
		C1238.025,1540.122,1213.061,1626.011,1187.55,1713.784z"/>
	<path fill="#2D4D8F" d="M225.799,841.412c20.114,74.734,39.732,147.623,59.659,221.664
		c-53.048,16.255-105.111,32.209-158.789,48.657c1.171-5.271,1.82-8.921,2.797-12.481c19.626-71.51,39.37-142.988,58.825-214.544
		c1.998-7.349,5.164-13.297,10.924-18.342C207.831,858.817,215.955,850.709,225.799,841.412z"/>
	<path fill="#56BFCA" d="M1896.956,1852.776c-1.877,71.19-3.719,141.026-5.616,212.927
		c-52.379-25.283-102.801-51.468-154.628-76.882c2.532-3.587,4.366-6.449,6.458-9.11c29.992-38.163,60.129-76.214,89.911-114.538
		c4.173-5.37,8.726-7.888,15.348-8.336C1864.09,1855.778,1879.72,1854.25,1896.956,1852.776z"/>
	<path fill="#7179B9" d="M1718.202,2011.67c4.915-6.285,9.599-12.275,14.974-19.148c52.715,26.377,105.035,52.557,158.019,79.069
		c-1.481,55.292-2.958,110.447-4.435,165.603c-0.812,0.301-1.623,0.602-2.435,0.903
		C1829.076,2162.791,1773.826,2087.485,1718.202,2011.67z"/>
	<path fill="#2D4D8F" d="M1452.389,1210.981c11.031,16.606,21.408,32.227,32.034,48.223c-2.753,2.581-4.849,4.749-7.151,6.673
		c-31.036,25.944-62.227,51.705-93.047,77.902c-5.92,5.032-11.358,6.304-18.859,4.651c-18.051-3.978-36.297-7.075-54.456-10.575
		c-2.237-0.431-4.418-1.152-7.363-1.934c0.484-2.746,0.7-5.314,1.4-7.743c6.92-24.004,13.978-47.968,20.845-71.987
		c1.201-4.2,2.058-8.271,7.301-9.168c1.503-0.257,2.928-0.944,4.403-1.39C1375.446,1234.183,1413.397,1222.74,1452.389,1210.981z"/>
	<path fill="#7179B9" d="M1730.559,1985.526c-15.454-7.72-31.272-15.518-46.956-23.575c-2.269-1.165-4.214-3.341-5.768-5.446
		c-18.276-24.765-36.457-49.601-54.624-74.445c-0.846-1.157-1.326-2.579-2.723-5.366c70.331-6.12,139.563-12.144,209.056-18.19
		C1826.372,1866.557,1741.967,1974.856,1730.559,1985.526z"/>
	<path fill="#8DC8E0" d="M1896.106,2074.104c27.654,13.834,53.303,26.665,79.852,39.947
		c-28.186,69.162-56.039,137.503-83.891,205.845c-0.84-0.215-1.68-0.429-2.52-0.644
		C1891.711,2238.385,1893.874,2157.518,1896.106,2074.104z"/>
	<path fill="#FFFFFF" d="M1566.269,1386.816c-60.375-11.589-120.751-23.178-183.795-35.279
		c36.104-30.122,70.258-58.618,105.113-87.699c27.167,40.794,53.752,80.715,80.338,120.636
		C1567.373,1385.255,1566.821,1386.035,1566.269,1386.816z"/>
	<path fill="#56BFCA" d="M1449.473,1206.618c-40.349,12.182-78.593,23.73-117.065,35.346c-0.45-8.82,33.007-127.609,41.703-148.352
		C1399.287,1131.364,1423.865,1168.219,1449.473,1206.618z"/>
	<path fill="#56BFCA" d="M1928.101,909.681c29.066,41.231,56.292,83.294,84.791,126.543c-30.168,9.156-59.061,17.925-89.613,27.197
		C1923.596,1011.492,1925.74,960.814,1928.101,909.681z"/>
	<path fill="#3C5CA7" d="M1613.841,247.24c-11.583,39.896-22.602,77.845-33.488,115.341c-1.097,0.419-1.453,0.651-1.819,0.666
		c-0.336,0.014-0.844-0.097-1.001-0.335c-23.826-35.942-47.632-71.896-71.402-107.874c-0.787-1.191-1.195-2.632-2.428-5.426
		C1540.48,248.82,1576.123,248.053,1613.841,247.24z"/>
	<path fill="#09A4CE" d="M1297.585,1335.205c-28.568-5.445-55.748-10.563-82.885-15.901c-2.442-0.48-5.292-1.828-6.778-3.701
		c-6.157-7.761-11.862-15.879-18.656-25.121c44.604-13.469,87.703-26.484,132.958-40.149
		C1313.677,1279.78,1305.815,1306.858,1297.585,1335.205z"/>
	<path fill="#3C5CA7" d="M2263.381,1408.588c-11.396-17.332-21.485-32.675-32.217-48.996
		c34.299-43.606,68.511-87.101,102.723-130.595c0.712,0.351,1.423,0.701,2.135,1.052
		C2312.159,1288.7,2288.296,1347.352,2263.381,1408.588z"/>
	<path fill="#C9E8F4" d="M1488.707,1256.427c-10.735-16.166-20.62-31.054-31.208-46.999c44.636-13.507,87.919-26.604,131.201-39.702
		c0.424,0.633,0.847,1.266,1.271,1.898C1556.974,1199.759,1523.38,1227.193,1488.707,1256.427z"/>
	<path fill="#09A4CE" d="M640.181,1964.31c-28.699,23.952-57.397,47.904-87.371,72.92c-6.119-22.766-11.761-43.753-17.831-66.337
		c35.567-3.114,69.793-6.111,104.019-9.107C639.392,1962.627,639.786,1963.469,640.181,1964.31z"/>
	<path fill="#09A4CE" d="M1534.374,1884.11c24.849-2.123,49.692-4.337,74.56-6.216c2.233-0.169,5.529,1.164,6.817,2.911
		c17.101,23.191,33.933,46.581,50.806,69.94c0.126,0.175-0.115,0.614-0.526,2.483c-44.439-22.225-88.529-44.276-132.619-66.327
		C1533.732,1885.97,1534.053,1885.04,1534.374,1884.11z"/>
	<path fill="#FFFFFF" d="M1301.794,1341.16c22.864,4.393,44.734,8.596,69.302,13.317c-28.853,24.069-55.842,46.583-82.67,68.963
		c-7.646-4.963-8.623-10.59-6.153-18.326c5.96-18.662,11.063-37.595,16.57-56.402
		C1299.479,1346.543,1300.483,1344.481,1301.794,1341.16z"/>
	<path fill="#4F57A3" d="M1276.19,1409.013c-21.147-28.814-40.718-55.482-60.289-82.15c0.454-0.632,0.908-1.264,1.362-1.896
		c25.864,4.958,51.727,9.916,78.809,15.107C1289.522,1362.788,1283.303,1384.351,1276.19,1409.013z"/>
	<path fill="#09A4CE" d="M1988.587,235.966c-14.921,0-28.252,0-43.127,0c-1.438-34.488,1.847-69.713,2.037-104.979
		c0.759-0.16,1.518-0.32,2.276-0.479C1962.525,165.156,1975.278,199.805,1988.587,235.966z"/>
	<path fill="#4F57A3" d="M1895.771,1847.866c-16.672,1.37-32.68,2.686-49.047,4.032c2.941-8.426,35.099-50.667,49.848-65.934
		C1899.347,1793.323,1899.006,1828.447,1895.771,1847.866z"/>
	<path fill="#4F57A3" d="M214.231,798.97c2.949,10.665,6.167,21.268,8.643,32.041c0.557,2.423-0.682,6.202-2.461,8.048
		c-7.408,7.69-15.338,14.881-23.076,22.256c-0.707-0.365-1.415-0.729-2.122-1.094c5.567-20.414,11.134-40.828,16.701-61.242
		C212.687,798.976,213.459,798.973,214.231,798.97z"/>
	<path fill="#3C5CA7" d="M1184.056,1292.139c5.78,7.789,10.999,14.823,17.64,23.772c-20.318-1.895-37.78-6.841-55.615-9.618
		c-0.143-0.835-0.286-1.67-0.428-2.505c6.185-1.89,12.366-3.789,18.555-5.666
		C1170.467,1296.224,1176.732,1294.346,1184.056,1292.139z"/>
	<path fill="#2D4D8F" d="M1728.403,1990.123c-4.696,6.024-8.43,10.815-13.403,17.195c-8.635-11.818-16.507-22.594-24.38-33.369
		c0.532-0.62,1.065-1.241,1.597-1.861C1703.76,1977.84,1715.302,1983.593,1728.403,1990.123z"/>
	<path fill="#09A4CE" d="M916.543,877.355c-3.605,7.797-7.21,15.593-11.692,25.285c-5.177-7.001-9.157-12.381-14.239-19.253
		c8.705-2.841,16.336-5.332,23.966-7.822C915.234,876.162,915.888,876.759,916.543,877.355z"/>
	<path fill="#4F57A3" d="M1278.019,1421.356c7.115,6.823,2.061,8.547-2.715,10.457
		C1276.133,1428.621,1276.962,1425.428,1278.019,1421.356z"/>
	<polygon fill="#4F57A3" points="652.603,1961.786 1129.259,1914.311 1186.088,1718.708 1033.824,1642.442 	"/>
	<polygon fill="#C9E8F4" points="-1.271,5.075 429.499,0.064 358.951,263.455 76.744,268.196 	"/>
	<path fill="#8DC8E0" d="M1175.241,796.116l197.028,292.146l-43.473,160.949l-139.529,41.271L915.727,918.035
		c0,0-21.668-32.693,11.453-47.172C960.3,856.383,1175.241,796.116,1175.241,796.116z"/>
	<polygon fill="#1D71B8" points="1300.923,1338.757 1376.677,1354.619 1290.731,1428.736 1278.429,1414.728 	"/>
	<polygon fill="#2D2E83" points="1488.492,1260.84 1571.809,1390.04 1376.677,1354.619 	"/>
	<polygon fill="#C9E8F4" points="1920.589,895.622 2018.01,1034.786 2262.553,966.062 2158.443,697.544 	"/>
	<path fill="#2D2E83" d="M-1.367,0C804.9,0,1611.167,0,2417.612,0c0,803.955,0,1607.943,0,2412.252
		c-806.208,0-1612.594,0-2418.979,0C-1.367,1608.242-1.367,804.138-1.367,0z M991.963,2407.771c5.605,0,9.44,0,13.275,0
		c127.442,0,254.884-0.093,382.325,0.198c9.026,0.02,14.626-2.753,20.185-9.843c98.71-125.895,197.703-251.569,296.623-377.299
		c2.355-2.993,4.583-6.086,7.206-9.579c-9.518-13.029-19.006-25.629-28.034-38.549c-4.121-5.898-9.261-9.907-15.677-13.085
		c-45.967-22.773-91.895-45.63-137.623-68.876c-7.973-4.053-15.637-5.343-24.39-4.407c-21.874,2.339-43.805,4.159-65.725,6.044
		c-48.843,4.202-97.698,8.259-146.54,12.481c-49.993,4.321-99.973,8.802-149.965,13.134c-10.381,0.9-10.498,0.712-13.349,10.52
		c-45.432,156.304-90.839,312.616-136.214,468.936C993.228,2400.316,992.854,2403.317,991.963,2407.771z M554.12,2042.317
		c32.91,122.272,65.573,243.626,98.256,365.054c111.567,0,221.946,0,333.536,0c47.089-161.972,94.197-324.007,141.721-487.472
		c-7.585,0.401-13.692,0.541-19.765,1.075c-39.603,3.478-79.192,7.127-118.799,10.555c-49.223,4.259-98.465,8.299-147.689,12.542
		c-59.991,5.172-119.964,10.542-179.967,15.567c-6.132,0.514-10.887,2.48-15.536,6.399c-28.605,24.113-57.396,48.008-86.138,71.959
		C557.981,2039.462,556.111,2040.792,554.12,2042.317z M1210.906,254.41c-53.451,115.321-106.677,230.159-159.933,345.058
		c42.447,63.689,84.486,126.764,126.582,189.926c2.817-0.645,4.698-0.953,6.504-1.507c97.332-29.828,194.632-59.758,292.039-89.339
		c6.349-1.928,8.355-5.712,9.918-11.105c29.453-101.622,58.86-203.258,88.679-304.773c2.237-7.617,0.86-12.967-3.253-19.149
		c-22.832-34.323-45.656-68.661-67.756-103.453c-5.259-8.278-10.914-10.942-20.493-10.707
		c-52.097,1.281-104.212,1.811-156.319,2.722C1288.678,252.752,1250.486,253.609,1210.906,254.41z M6.04,1648.134
		c0,121.269,0,241.632,0,363.6c174.237-15.11,347.684-30.151,522.502-45.311c-39.735-147.658-78.971-293.465-118.512-440.401
		C274.456,1567.001,140.25,1607.567,6.04,1648.134z M1741.57,622.913c-3.489,0.771-5.762,1.111-7.935,1.777
		c-79.255,24.287-158.462,48.734-237.815,72.699c-7.207,2.177-9.6,6.368-11.397,12.559
		c-35.483,122.286-71.013,244.559-106.678,366.793c-1.849,6.336-1.455,11.378,2.405,17.081
		c23.319,34.455,46.235,69.18,69.343,103.777c1.651,2.473,3.765,4.638,5.526,6.78c2.228-0.404,3.781-0.532,5.241-0.972
		c45.773-13.8,91.57-27.524,137.255-41.606c4.971-1.532,9.807-4.545,13.841-7.904c99.868-83.145,199.621-166.428,299.384-249.699
		c3.2-2.671,6.289-5.473,9.847-8.578C1860.775,804.504,1801.413,714.075,1741.57,622.913z M1028.195,1640.018
		c-3.671-1.978-6.003-3.313-8.403-4.516c-118.968-59.602-237.959-119.158-356.866-178.881c-6.311-3.17-11.868-3.576-18.696-1.493
		c-72.663,22.174-145.429,44.009-218.154,65.981c-3.534,1.068-6.943,2.544-11.082,4.078
		c39.706,147.51,78.97,294.087,118.672,440.684c37.735-3.185,73.845-6.322,109.976-9.197c6.333-0.504,10.625-4.047,15.071-7.757
		c120.225-100.342,240.457-200.676,360.675-301.026C1022.005,1645.709,1024.475,1643.354,1028.195,1640.018z M2413.11,1808.899
		c-1.81-0.251-2.912-0.612-3.976-0.522c-43.464,3.65-86.931,7.268-130.385,11.042c-57.678,5.01-115.33,10.342-173.036,15.002
		c-8.1,0.654-11.984,3.29-15.03,10.837c-34.428,85.311-69.254,170.463-103.94,255.671c-1.393,3.422-2.448,6.982-3.582,10.253
		c23.202,14.55,421.459,212.486,429.948,213.763C2413.11,2152.962,2413.11,1980.992,2413.11,1808.899z M408.749,1521.205
		c-40.788-151.555-81.285-302.027-121.909-452.969c-4.574,1.242-7.53,1.96-10.434,2.847
		c-47.183,14.406-94.302,29.024-141.592,43.073c-8.119,2.412-11.461,6.707-13.615,14.622
		c-33.114,121.705-65.911,243.503-100.33,364.843c-10.927,38.521-18.384,76.812-15.593,116.88
		c0.717,10.295,0.108,20.681,0.108,32.625C140.4,1602.317,274.107,1561.902,408.749,1521.205z M5.904,2407.771
		c5.176,0,8.989,0,12.802,0c25.093,0,50.199-0.454,75.274,0.219c10.336,0.277,18.084-2.673,25.995-9.305
		c104.606-87.688,209.472-175.068,314.273-262.524c35.23-29.399,70.298-58.997,105.837-88.021
		c6.773-5.531,8.192-10.447,5.651-18.557c-4.827-15.403-8.502-31.165-12.735-46.756c-0.992-3.654-2.305-7.221-3.693-11.518
		c-174.728,15.196-349.033,30.124-523.403,45.494C5.904,2147.705,5.904,2276.948,5.904,2407.771z M1290.731,1428.736
		c4.105,5.656,7.473,10.338,10.883,14.989c102.115,139.227,204.327,278.383,306.125,417.84c6.147,8.421,12.167,10.665,22.063,9.683
		c41.478-4.116,83.033-7.446,124.559-11.085c25.377-2.223,50.759-4.402,76.115-6.843c2.813-0.271,6.347-1.385,8.054-3.379
		c7.463-8.717,14.376-17.903,21.381-26.782c-2.036-3.238-3.414-5.544-4.901-7.776c-91.848-137.896-183.754-275.754-275.41-413.777
		c-4.296-6.469-9.391-9.171-16.656-10.537c-58.375-10.976-116.72-22.115-174.996-33.604c-7.616-1.502-12.972,0-18.788,4.974
		c-23.742,20.302-47.887,40.134-71.859,60.168C1295.276,1424.299,1293.432,1426.205,1290.731,1428.736z M825.015,270.457
		c-75.51,71.921-150.506,143.354-226.06,215.317c96.378,131.391,192.247,262.086,288.234,392.942
		c8.326-2.544,15.551-5.43,23.054-6.86c8.23-1.569,12.105-6.428,15.415-13.616c38.006-82.532,76.173-164.992,114.69-247.288
		c3.721-7.95,3.549-13.478-1.444-20.93C969.407,486.31,900.283,382.35,831.044,278.467
		C829.375,275.963,827.425,273.644,825.015,270.457z M1920.096,885.034c0.829-0.221,1.659-0.442,2.488-0.662
		c5.634-213.767,11.267-427.534,16.928-642.326c-107.694,1.816-213.75,3.605-319.986,5.397c-1.338,3.931-2.565,7.129-3.521,10.404
		c-10.025,34.356-19.724,68.81-30.203,103.027c-2.536,8.281-1.081,14.284,3.521,21.278
		c108.228,164.493,216.244,329.125,324.316,493.721C1915.689,878.993,1917.939,881.983,1920.096,885.034z M1995.835,241.111
		c55.921,151.993,111,301.695,166.421,452.327c2.659-1.795,4.274-2.692,5.667-3.853c79.967-66.671,159.886-133.401,239.942-199.965
		c4.686-3.896,6.097-8.117,6.087-13.929c-0.141-77.389-0.084-154.779-0.142-232.169c-0.002-2.918-0.676-5.836-1.102-9.282
		C2273.897,236.528,2135.902,238.802,1995.835,241.111z M1185.635,1285.557c3.016-0.509,4.955-0.626,6.765-1.172
		c41.33-12.472,82.612-25.104,124.001-37.377c6.022-1.786,8.493-5.227,10.119-10.912c13.218-46.22,26.479-92.432,40.315-138.47
		c2.378-7.913,1.163-13.548-3.279-20.188c-61.039-91.225-121.822-182.621-182.696-273.956c-1.656-2.485-3.622-4.763-5.618-7.366
		c-4.165,1.165-7.861,2.116-11.507,3.231c-71.88,21.977-143.581,44.563-215.753,65.538c-17.538,5.097-28.46,13.274-34.682,30.471
		c-3.264,9.021-3.379,14.81,2.427,22.678c74.56,101.053,148.745,202.381,223.027,303.638
		C1154.234,1242.776,1169.722,1263.874,1185.635,1285.557z M885.2,884.601c-198.254,60.731-395.389,121.119-592.796,181.59
		c0.581,3.7,0.76,6.377,1.439,8.922c5.458,20.442,11.525,40.741,16.283,61.341c1.936,8.384,6.235,10.76,13.962,12.231
		c131.083,24.954,262.11,50.206,393.155,75.358c11.657,2.237,23.361,4.234,35.695,6.46
		c50.042-107.955,99.695-215.071,149.459-322.428C896.666,900.251,891.241,892.846,885.2,884.601z M6.075,1042.47
		c3.464-2.843,5.84-4.553,7.94-6.551c55.602-52.889,111.147-105.838,166.808-158.665c4.379-4.156,6.956-8.772,8.487-14.616
		c6.044-23.075,12.4-46.073,18.973-69.004c1.778-6.202,1.545-11.898-0.127-18.068c-19.014-70.194-37.821-140.444-56.714-210.67
		C104.358,389.888,57.262,214.885,10.133,39.89c-0.799-2.966-2.065-5.807-3.114-8.707C6.705,31.342,6.39,31.5,6.075,31.658
		C6.075,368.038,6.075,704.418,6.075,1042.47z M1491.916,1260.351c1.582,2.766,2.432,4.478,3.483,6.057
		c25.807,38.801,51.709,77.539,77.364,116.439c3.072,4.658,6.98,6.755,12.119,7.684c11.382,2.057,22.747,4.208,34.105,6.391
		c93.133,17.899,186.26,35.828,279.406,53.658c2.78,0.532,5.752,0.067,9.198,0.067c3.355-126.718,6.692-252.704,10.057-379.805
		c-4.975,1.299-8.313,2.053-11.581,3.04c-96.677,29.194-193.368,58.343-289.968,87.789c-6.04,1.841-12.01,5.25-16.907,9.268
		c-31.589,25.921-62.874,52.212-94.25,78.391C1500.825,1252.766,1496.753,1256.256,1491.916,1260.351z M1492.403,244.567
		c-2.508-4.36-3.869-7.032-5.504-9.525c-48.387-73.777-96.882-147.483-145.067-221.391c-4.091-6.275-8.397-8.589-15.896-8.557
		c-70.276,0.292-140.554,0.32-210.83-0.019c-8.461-0.041-14.382,2.532-20.378,8.266c-80.814,77.282-161.839,154.345-242.787,231.489
		c-2.664,2.538-5.065,5.35-7.589,8.034c0.243,0.769,0.485,1.538,0.728,2.307C1060.174,252.018,1275.257,248.116,1492.403,244.567z
		 M1714.701,2015.87c-100.399,127.575-199.999,254.131-299.576,380.705c-2.13,2.707-4.003,5.617-5.954,8.46
		c-0.168,0.245-0.09,0.719-0.005,1.058c0.091,0.365,0.324,0.695,0.495,1.04c26.488,2.253,463.272,1.173,472.729-1.389
		c0-14.299,0-28.833,0-43.599c-1.85,0.38-3.808,0.782-7.712,1.584c2.341-6.187,4.334-11.018,5.991-15.961
		c1.452-4.328,3.47-8.751,3.617-13.186c0.985-29.614,1.535-59.241,2.202-87.822c-4.057-4.499-7.908-8.1-10.976-12.273
		c-50.675-68.921-101.247-137.917-151.858-206.885C1720.973,2023.947,1718.157,2020.391,1714.701,2015.87z M1032.914,1636.404
		c4.029-3.268,7.635-6.12,11.163-9.063c69.554-58.019,138.949-116.231,208.816-173.874c10.073-8.311,16.475-17.482,19.327-30.047
		c1.425-6.279,0.577-10.812-3.229-15.911c-19.351-25.925-38.419-52.062-57.454-78.22c-3.092-4.248-6.461-6.905-11.988-7.857
		c-20.128-3.468-40.195-7.334-60.182-11.538c-6.303-1.326-12.016-0.863-18.06,0.969c-149.372,45.268-298.772,90.443-448.158,135.665
		c-3.07,0.93-6.028,2.229-11.256,4.186C786.881,1513.268,909.777,1574.776,1032.914,1636.404z M822.256,266.019
		c-0.463-1.545-0.925-3.089-1.388-4.634c-25.506-0.912-51.063,0.066-76.596,0.421c-25.854,0.359-51.704,0.962-77.556,1.424
		c-25.468,0.456-50.937,0.885-76.407,1.296c-25.855,0.418-51.711,0.749-77.565,1.21c-25.852,0.462-51.701,1.101-77.554,1.546
		c-25.721,0.442-51.444,0.739-76.825,1.095c-1.113,2.595-1.892,3.95-2.293,5.409c-16.941,61.563-33.743,123.165-50.903,184.668
		c-1.962,7.032,0.613,11.591,4.542,16.686c39.061,50.651,77.987,101.407,116.97,152.118c2.067,2.689,4.315,5.24,7.239,8.776
		C563.647,512.365,693.095,389.341,822.256,266.019z M290.418,1060.317c15.95-2.413,365.841-110.344,373.806-115.407
		c-76.889-100.126-153.733-200.194-230.897-300.679c-3.128,2.688-5.53,4.574-7.73,6.669
		c-62.506,59.518-124.903,119.15-187.622,178.444c-6.143,5.807-7.639,10.73-5.391,18.913
		c18.431,67.102,36.354,134.344,54.467,201.533C288.02,1053.39,289.317,1056.901,290.418,1060.317z M750.191,1235.295
		c-145.498-27.802-289.438-55.691-435.669-83.426c33.358,123.945,66.068,245.481,98.856,367.308c4.22-0.996,6.858-1.473,9.407-2.242
		c73.44-22.141,146.846-44.396,220.346-66.34c6.992-2.088,10.745-5.944,13.704-12.38c29.577-64.332,59.443-128.532,89.203-192.78
		C747.306,1242.698,748.334,1239.851,750.191,1235.295z M647.155,2407.31c-32.563-120.928-64.452-240.278-97.279-361.094
		c-142.869,119.209-284.044,237.003-425.2,354.819c-1.453,1.213-2.674,2.708-3.951,4.118c-0.188,0.207-0.171,0.696-0.094,1.017
		c0.086,0.361,0.348,0.681,0.6,1.139C295.94,2407.31,470.715,2407.31,647.155,2407.31z M2413.185,2332.835
		c-144.241-72.183-288.108-144.179-432.429-216.402c-2.167,4.905-3.798,8.361-5.24,11.894
		c-23.828,58.418-46.942,117.139-71.763,175.134c-10.659,24.902-17.234,49.876-15.995,76.913c0.399,8.712,0.063,17.458,0.063,26.721
		c175.49,0,350.089,0,525.364,0C2413.185,2382.326,2413.185,2358.221,2413.185,2332.835z M1912.474,1452.69
		c4.573,1.165,7.528,2.085,10.549,2.662c62.506,11.941,125.052,23.677,187.487,35.974c7.318,1.441,11.109-0.396,15.408-5.925
		c30.757-39.551,61.837-78.853,92.796-118.248c1.883-2.396,3.617-4.908,6.029-8.196c-69.49-105.858-138.969-211.7-208.938-318.289
		c-31.531,9.541-62.343,18.864-93.181,28.195C1919.224,1197.43,1915.858,1324.723,1912.474,1452.69z M595.286,489.268
		c-53.254,50.73-105.646,100.639-158.598,151.081c78.417,102.112,156.225,203.432,234.042,304.765
		c70.731-21.677,140.305-43,211.397-64.788C786.105,749.416,690.987,619.74,595.286,489.268z M424.434,5.985
		c-4.198-0.343-6.458-0.693-8.719-0.69C280.203,5.501,144.69,5.735,9.177,5.992C8.866,5.993,8.506,6.32,8.26,6.58
		C8.002,6.853,7.852,7.23,6.941,8.762C29.944,94.254,53.2,180.689,76.744,268.196c92.712-1.602,184.714-3.193,277.035-4.788
		C377.434,177.225,400.724,92.369,424.434,5.985z M429.823,5.268c-23.631,86.088-47.022,171.301-70.872,258.187
		c152.626-2.551,303.589-5.074,456.348-7.627c-2.985-4.915-4.804-8.168-6.864-11.263C757.406,167.9,706.261,91.311,655.453,14.501
		c-4.588-6.936-9.519-9.457-17.79-9.415C572.4,5.413,507.135,5.268,441.871,5.268C438.417,5.268,434.962,5.268,429.823,5.268z
		 M2158.443,697.544c-56.225-152.809-112.005-304.409-167.375-454.893c-16.336,0-31.149,0-46.623,0
		c-5.693,215.875-11.348,430.324-17.079,647.682C2005.77,824.921,2081.766,761.517,2158.443,697.544z M1033.824,1642.442
		c-121.1,101.031-241.904,201.812-362.692,302.612c-2.647,2.209-5.113,4.635-7.628,6.997c-0.223,0.209-0.246,0.694-0.25,1.052
		c-0.004,0.37,0.128,0.742,0.299,1.621c155.148-13.464,310.349-26.932,465.704-40.414c19.126-65.83,37.882-130.387,56.829-195.604
		C1134.912,1693.075,1084.657,1667.903,1033.824,1642.442z M1609.851,1872.42c-108.686-148.161-215.84-294.234-322.771-440.002
		c-12.14,6.269-17.31,15.207-20.573,26.638c-23.33,81.712-47.192,163.273-70.857,244.89c-1.142,3.938-2.034,7.948-3.146,12.333
		c21.072,10.544,41.384,20.706,61.693,30.872c86.166,43.13,172.314,86.295,258.55,129.286c3.943,1.966,8.729,3.518,13.02,3.297
		c16.172-0.834,32.306-2.424,48.444-3.846C1585.266,1874.913,1596.305,1873.746,1609.851,1872.42z M758.145,1231.189
		c4.57,1.167,7.494,2.077,10.482,2.652c115.458,22.204,230.921,44.386,346.391,66.527c5.276,1.012,11.051,3.298,15.874,2.102
		c16.315-4.045,32.305-9.391,50.07-14.738c-91.995-125.42-182.988-249.475-275.137-375.104
		C856.26,1019.546,807.466,1124.799,758.145,1231.189z M1948.041,109.506c155.074,39.591,309.729,79.074,465.06,118.731
		c0-75.099,0-148.395,0-221.552c-14.37-2.571-453.751-1.88-462.493,0.821C1949.766,40.98,1948.917,74.705,1948.041,109.506z
		 M2413.377,491.376c-84.312,70.351-166.494,138.924-249.028,207.791c32.264,87.674,64.245,174.58,96.487,262.194
		c51.495-15.575,101.924-30.828,152.541-46.138C2413.377,774.283,2413.377,634.254,2413.377,491.376z M2413.116,1802.953
		c0.363-3.214,0.679-4.711,0.681-6.208c0.037-47.74,0.177-95.481-0.155-143.219c-0.032-4.599-2.166-9.727-4.748-13.684
		c-46.104-70.642-92.419-141.147-138.738-211.649c-1.57-2.39-3.648-4.447-6.292-7.624
		c-55.785,136.959-111.02,272.567-166.922,409.812C2203.482,1821.139,2307.952,1812.076,2413.116,1802.953z M212.007,770.924
		c0.793,0.066,1.587,0.133,2.38,0.199c45.853-167.025,91.706-334.05,138.009-502.712c-92.16,1.563-182.292,3.093-274.329,4.654
		C122.939,439.856,167.473,605.39,212.007,770.924z M1620.46,242.505c107.555-1.809,213.027-3.584,319.243-5.37
		c2.027-77.914,4.013-154.226,6.016-231.223c-86.291,0-170.96,0-256.478,0C1666.423,84.404,1643.71,162.53,1620.46,242.505z
		 M1583.839,1395.233c-0.437,0.679-0.875,1.359-1.312,2.038c93.358,140.115,186.716,280.229,280.843,421.498
		c11.944-15.194,22.79-28.663,33.159-42.487c1.867-2.489,2.312-6.412,2.491-9.722c0.663-12.297,1.027-24.613,1.348-36.926
		c2.181-83.506,4.334-167.013,6.453-250.52c0.174-6.87,0.023-13.749,0.023-21.91
		C1799.251,1436.562,1691.545,1415.897,1583.839,1395.233z M2228.202,1364.239c-2.904,3.255-4.753,5.118-6.366,7.167
		c-104.194,132.38-208.351,264.788-312.615,397.114c-3.762,4.775-5.72,9.565-5.759,15.709c-0.116,18.095-0.786,36.186-1.105,54.28
		c-0.044,2.519,0.67,5.052,1.03,7.56c5.338,0,9.943,0.335,14.486-0.051c54.232-4.617,108.447-9.441,162.689-13.927
		c7.81-0.646,12.01-3.565,15.082-11.178c38.465-95.315,77.327-190.471,116.101-285.663c15.248-37.435,30.55-74.849,45.765-112.297
		c1.682-4.14,4.215-8.003,0.845-12.943C2248.381,1395.386,2238.844,1380.466,2228.202,1364.239z M2020.8,1039.124
		c69.571,105.973,138.132,210.405,207.123,315.494c2.215-2.377,3.581-3.645,4.719-5.091c35.981-45.681,71.86-91.442,108.018-136.984
		c3.929-4.948,4.068-9.042,1.99-14.647c-27.395-73.909-54.579-147.896-81.862-221.846c-1.014-2.748-2.495-5.324-3.909-8.296
		C2178.304,991.508,2100.541,1015.017,2020.8,1039.124z M830.016,267.802c71.897,107.918,144.198,216.443,217.646,326.69
		c13.813-29.722,26.894-57.847,39.957-85.981c12.961-27.915,25.905-55.838,38.854-83.759c13.111-28.27,26.387-56.465,39.279-84.834
		c12.774-28.109,26.722-55.719,38.82-85.48c-7.696,0-13.464-0.088-19.227,0.013c-74.441,1.308-148.88,2.657-223.32,3.965
		c-39.342,0.692-78.685,1.335-118.028,1.976C838.549,260.482,832.959,260.134,830.016,267.802z M2160.256,702.57
		c-78.324,65.362-155.406,129.687-232.846,194.311c30.673,46.689,60.595,92.233,90.6,137.905
		c79.976-24.197,158.67-48.007,238.013-72.013C2223.857,875.376,2192.291,789.61,2160.256,702.57z M656.253,5.752
		c1.753,3.297,2.499,5.041,3.533,6.595c52.528,78.868,105.058,157.735,157.66,236.554c6.308,9.453,12.578,9.78,21.62,1.176
		C922.283,170.885,1005.459,91.65,1088.6,12.379c1.702-1.623,2.84-3.835,4.86-6.627C947.349,5.752,802.747,5.752,656.253,5.752z
		 M1683.989,6.058c-114.274,0-226.71,0-340.323,0c1.765,3.378,2.768,5.776,4.17,7.914c48.786,74.384,97.657,148.711,146.328,223.17
		c3.555,5.438,7.445,7.762,14.055,7.539c26.219-0.884,52.454-1.317,78.686-1.807c9.21-0.172,18.425-0.027,28.239-0.027
		C1638.136,163.763,1660.855,85.625,1683.989,6.058z M1371.597,1080.684c37.005-127.313,73.212-251.876,110.096-378.772
		c-101.319,31.039-200.407,61.395-301.01,92.215C1244.463,889.859,1307.135,983.927,1371.597,1080.684z M182.787,886.223
		c-0.809-0.451-1.618-0.902-2.427-1.352c-3.036,2.755-6.129,5.45-9.098,8.275C118.75,943.128,66.357,993.235,13.614,1042.973
		c-6.209,5.855-8.407,11.709-8.395,20.051c0.226,149.813,0.165,299.626,0.165,449.439c0,3.728,0,7.456,0,11.184
		c0.773,0.121,1.546,0.242,2.319,0.364C66.065,1311.415,124.426,1098.819,182.787,886.223z M755.77,1236.37
		c-32.248,69.683-64.222,138.065-96.842,209.214c154.151-46.596,305.337-92.295,456.522-137.994
		c-0.004-0.732-0.007-1.463-0.011-2.195C995.918,1282.458,876.396,1259.52,755.77,1236.37z M2413.346,1129.943
		c-2.562,2.121-3.567,2.697-4.232,3.54c-18.623,23.606-37.266,47.196-55.735,70.92c-2.32,2.979-4.013,6.562-5.455,10.086
		c-26.084,63.776-52.023,127.61-78.209,191.344c-2.29,5.574-2.009,9.686,1.395,14.841c45.643,69.134,91.033,138.435,136.536,207.662
		c1.278,1.945,3.12,3.521,5.7,6.377C2413.346,1465.896,2413.346,1298.887,2413.346,1129.943z M1738.388,618.081
		c-52.555-80.054-104.127-158.61-155.698-237.165c-0.857,0.154-1.714,0.308-2.571,0.463c-7.451,25.68-14.889,51.364-22.356,77.04
		c-7.621,26.205-15.264,52.404-22.91,78.602c-7.538,25.828-15.343,51.583-22.57,77.498c-7.245,25.98-15.943,51.597-22.346,79.658
		C1573.488,668.586,1654.825,643.674,1738.388,618.081z M1505.972,1881.621c0.147-0.87,0.295-1.739,0.442-2.609
		c-104.946-52.53-209.892-105.06-315.762-158.053c-18.77,64.628-37.16,127.945-56.025,192.9
		C1259.776,1902.994,1382.874,1892.307,1505.972,1881.621z M1977.877,2109.328c37.171-91.249,73.792-181.15,111.319-273.275
		c-63.563,5.501-125.07,10.825-187.267,16.208c-1.93,72.858-3.821,144.227-5.728,216.234
		C1923.171,2081.978,1949.634,2095.208,1977.877,2109.328z M228.361,831.807c68.228-64.994,134.765-128.378,201.139-191.606
		c-18.741-28.217-120.6-159.083-128.381-164.851c-0.856,2.632-1.759,5.071-2.444,7.569c-26.974,98.25-53.934,196.504-80.859,294.767
		c-0.705,2.571-1.917,5.469-1.348,7.847C220.006,800.322,223.985,815.007,228.361,831.807z M1912.455,1458.261
		c-2.902,102.566-5.647,203.674-7.976,304.792c0.781,0.184,1.562,0.367,2.343,0.551c69.402-88.21,138.804-176.419,209.454-266.214
		C2047.448,1484.177,1980.902,1471.401,1912.455,1458.261z M1172.748,791.326c-41.599-62.447-82.272-123.504-124.241-186.507
		c-40.599,87.573-80.324,173.259-121.329,261.706C1010.265,841.082,1090.697,816.452,1172.748,791.326z M2348.944,1200.893
		c3.622-4.203,5.945-6.705,8.053-9.376c16.954-21.48,33.714-43.115,50.899-64.409c4.409-5.464,6.105-10.987,6.081-17.92
		c-0.206-58.531-0.117-117.063-0.117-175.595c0-3.767,0-7.533,0-13.241c-51.323,15.505-100.94,30.494-151.306,45.71
		C2291.432,1044.561,2319.835,1121.769,2348.944,1200.893z M2387.485,229.749c0.067-0.709,0.134-1.418,0.2-2.127
		c-1.317-0.539-2.591-1.245-3.957-1.593c-143.718-36.644-287.442-73.261-431.174-109.849c-0.274-0.07-0.703,0.262-0.986,0.495
		c-0.251,0.207-0.399,0.539-0.995,1.394c14.322,38.893,28.783,78.164,43.516,118.172
		C2125.575,234.071,2256.53,231.91,2387.485,229.749z M1922.083,904.928c-0.869-0.485-1.738-0.969-2.608-1.454
		c-99.424,82.959-198.848,165.918-298.272,248.877c0.397,0.668,0.794,1.335,1.192,2.003c98.31-29.725,196.619-59.45,295.331-89.296
		C1919.198,1010.937,1920.641,957.932,1922.083,904.928z M1187.55,1713.784c25.511-87.773,50.474-173.662,75.821-260.868
		c-2.663,1.109-3.829,1.307-4.612,1.961c-72.778,60.851-145.527,121.737-218.259,182.643c-0.223,0.187-0.216,0.712-0.219,1.079
		c-0.002,0.348,0.126,0.697,0.325,1.679C1088.828,1664.4,1137.408,1688.701,1187.55,1713.784z M225.799,841.412
		c-9.844,9.296-17.968,17.405-26.585,24.953c-5.76,5.046-8.926,10.993-10.924,18.342c-19.455,71.556-39.199,143.034-58.825,214.544
		c-0.977,3.56-1.626,7.21-2.797,12.481c53.677-16.448,105.741-32.402,158.789-48.657
		C265.53,989.036,245.913,916.146,225.799,841.412z M1896.956,1852.776c-17.236,1.474-32.865,3.001-48.527,4.06
		c-6.622,0.448-11.175,2.966-15.348,8.336c-29.782,38.325-59.919,76.375-89.911,114.538c-2.092,2.661-3.926,5.523-6.458,9.11
		c51.827,25.414,102.249,51.6,154.628,76.882C1893.236,1993.802,1895.078,1923.966,1896.956,1852.776z M1718.202,2011.67
		c55.624,75.815,110.874,151.121,166.123,226.426c0.812-0.301,1.623-0.602,2.435-0.903c1.477-55.156,2.955-110.311,4.435-165.603
		c-52.984-26.512-105.304-52.691-158.019-79.069C1727.802,1999.395,1723.118,2005.385,1718.202,2011.67z M1452.389,1210.981
		c-38.991,11.759-76.943,23.203-114.892,34.653c-1.475,0.445-2.9,1.132-4.403,1.39c-5.243,0.898-6.1,4.968-7.301,9.168
		c-6.867,24.019-13.925,47.983-20.845,71.987c-0.7,2.429-0.917,4.997-1.4,7.743c2.945,0.782,5.126,1.503,7.363,1.934
		c18.158,3.5,36.404,6.597,54.456,10.575c7.501,1.653,12.939,0.381,18.859-4.651c30.819-26.197,62.011-51.958,93.047-77.902
		c2.302-1.924,4.398-4.092,7.151-6.673C1473.796,1243.207,1463.42,1227.587,1452.389,1210.981z M1730.559,1985.526
		c11.407-10.67,95.813-118.969,98.986-127.022c-69.493,6.047-138.725,12.07-209.056,18.19c1.396,2.787,1.877,4.209,2.723,5.366
		c18.167,24.845,36.348,49.68,54.624,74.445c1.554,2.106,3.499,4.281,5.768,5.446
		C1699.287,1970.008,1715.105,1977.806,1730.559,1985.526z M1896.106,2074.104c-2.232,83.414-4.395,164.281-6.559,245.148
		c0.84,0.215,1.68,0.43,2.52,0.644c27.852-68.342,55.705-136.684,83.891-205.845
		C1949.409,2100.77,1923.76,2087.938,1896.106,2074.104z M1566.269,1386.816c0.552-0.781,1.104-1.561,1.656-2.342
		c-26.586-39.921-53.171-79.842-80.338-120.636c-34.855,29.081-69.009,57.576-105.113,87.699
		C1445.518,1363.638,1505.893,1375.227,1566.269,1386.816z M1449.473,1206.618c-25.607-38.399-50.185-75.254-75.362-113.007
		c-8.695,20.743-42.153,139.532-41.703,148.352C1370.88,1230.347,1409.124,1218.8,1449.473,1206.618z M1928.101,909.681
		c-2.362,51.133-4.505,101.811-4.823,153.741c30.552-9.273,59.445-18.041,89.613-27.197
		C1984.393,992.975,1957.167,950.912,1928.101,909.681z M1613.841,247.24c-37.718,0.812-73.361,1.58-110.139,2.372
		c1.233,2.794,1.641,4.235,2.428,5.426c23.77,35.978,47.577,71.932,71.402,107.874c0.157,0.237,0.665,0.349,1.001,0.335
		c0.366-0.016,0.722-0.248,1.819-0.666C1591.239,325.086,1602.258,287.136,1613.841,247.24z M1297.585,1335.205
		c8.23-28.347,16.091-55.425,24.64-84.872c-45.255,13.666-88.354,26.68-132.958,40.149c6.794,9.242,12.499,17.359,18.656,25.121
		c1.485,1.873,4.336,3.221,6.778,3.701C1241.838,1324.641,1269.017,1329.76,1297.585,1335.205z M2263.381,1408.588
		c24.915-61.235,48.778-119.887,72.641-178.54c-0.712-0.351-1.423-0.701-2.135-1.052c-34.212,43.495-68.423,86.99-102.723,130.595
		C2241.897,1375.913,2251.985,1391.255,2263.381,1408.588z M1488.707,1256.427c34.673-29.234,68.268-56.668,101.263-84.802
		c-0.424-0.633-0.847-1.266-1.271-1.898c-43.282,13.098-86.565,26.195-131.201,39.702
		C1468.086,1225.374,1477.972,1240.261,1488.707,1256.427z M640.181,1964.31c-0.394-0.841-0.789-1.682-1.183-2.524
		c-34.226,2.997-68.452,5.993-104.019,9.107c6.07,22.584,11.712,43.571,17.831,66.337
		C582.784,2012.214,611.482,1988.262,640.181,1964.31z M1534.374,1884.11c-0.321,0.93-0.641,1.86-0.962,2.79
		c44.09,22.051,88.18,44.102,132.619,66.327c0.411-1.869,0.652-2.308,0.526-2.483c-16.873-23.359-33.704-46.748-50.806-69.94
		c-1.288-1.746-4.583-3.079-6.817-2.911C1584.066,1879.773,1559.223,1881.987,1534.374,1884.11z M1301.794,1341.16
		c-1.311,3.322-2.315,5.383-2.95,7.552c-5.507,18.807-10.61,37.74-16.57,56.402c-2.47,7.735-1.493,13.363,6.153,18.326
		c26.828-22.38,53.817-44.894,82.67-68.963C1346.527,1349.755,1324.658,1345.553,1301.794,1341.16z M1276.19,1409.013
		c7.113-24.662,13.332-46.226,19.882-68.938c-27.082-5.191-52.946-10.149-78.809-15.107c-0.454,0.632-0.908,1.264-1.362,1.896
		C1235.472,1353.531,1255.043,1380.199,1276.19,1409.013z M1988.587,235.966c-13.309-36.161-26.061-70.81-38.813-105.458
		c-0.759,0.16-1.518,0.32-2.276,0.479c-0.19,35.266-3.475,70.49-2.037,104.979C1960.335,235.966,1973.666,235.966,1988.587,235.966z
		 M1895.771,1847.866c3.235-19.419,3.576-54.543,0.801-61.903c-14.749,15.267-46.907,57.508-49.848,65.934
		C1863.091,1850.552,1879.099,1849.237,1895.771,1847.866z M214.231,798.97c-0.772,0.003-1.543,0.007-2.315,0.01
		c-5.567,20.414-11.134,40.828-16.701,61.242c0.707,0.365,1.415,0.729,2.122,1.094c7.738-7.374,15.668-14.565,23.076-22.256
		c1.778-1.846,3.017-5.625,2.461-8.048C220.398,820.238,217.18,809.635,214.231,798.97z M1184.056,1292.139
		c-7.324,2.207-13.59,4.084-19.848,5.983c-6.188,1.877-12.37,3.777-18.555,5.666c0.143,0.835,0.286,1.67,0.428,2.505
		c17.835,2.777,35.297,7.723,55.615,9.618C1195.055,1306.962,1189.836,1299.928,1184.056,1292.139z M1728.403,1990.123
		c-13.101-6.53-24.643-12.283-36.186-18.036c-0.532,0.62-1.065,1.241-1.597,1.861c7.873,10.776,15.746,21.551,24.38,33.369
		C1719.973,2000.938,1723.708,1996.147,1728.403,1990.123z M916.543,877.355c-0.655-0.597-1.31-1.194-1.964-1.79
		c-7.631,2.49-15.261,4.981-23.966,7.822c5.082,6.872,9.062,12.253,14.239,19.253C909.333,892.948,912.938,885.152,916.543,877.355z
		 M1278.019,1421.356c-1.057,4.072-1.886,7.265-2.715,10.457C1280.081,1429.903,1285.135,1428.179,1278.019,1421.356z"/>
</g>
<g>
	<g>
		<path opacity="0.8" fill="#B9E2F3" d="M1894.837,1504.548c0,518.806-307.125,799.759-685.983,799.759
			s-685.983-280.953-685.983-799.759S1208.854,102.97,1208.854,102.97S1894.837,985.742,1894.837,1504.548z"/>
		<path fill="#009FE3" d="M1894.837,1504.548l-0.512,30.852l-0.256,15.426c-0.155,5.14-0.528,10.272-0.782,15.408l-1.692,30.816
			c-0.812,10.253-1.895,20.486-2.829,30.731l-1.454,15.364l-2.036,15.296l-4.204,30.578c-3.751,20.23-6.829,40.6-11.725,60.603
			c-4.12,20.178-9.873,39.953-15.224,59.83c-6.292,19.594-12.164,39.348-19.758,58.499c-14.54,38.493-31.507,76.198-52.291,111.791
			c-41.13,71.294-94.49,136.024-159.206,187.323c-64.403,51.58-139.232,89.969-218.539,113.087
			c-79.285,23.453-162.914,31.255-245.296,26.344c-41.391-2.506-82.435-8.43-122.76-18.082
			c-40.248-9.834-79.627-23.375-117.349-40.635c-75.512-34.411-144.031-84.132-200.596-145.066
			c-56.355-61.196-100.718-132.96-132.79-209.568c-15.881-38.391-28.933-77.91-39.292-118.114
			c-2.492-10.07-4.672-20.216-7.022-30.321c-1.111-5.066-2.408-10.097-3.364-15.193l-2.805-15.301
			c-1.765-10.217-3.971-20.369-5.37-30.641l-4.314-30.801c-4.911-41.153-8.305-82.526-8.812-123.95l-0.32-15.531l-0.159-7.766
			c-0.025-2.935,0.074-5.243,0.104-7.895l0.281-15.426c0.106-5.148,0.534-10.45,0.788-15.667
			c1.036-20.994,3.423-41.552,6.107-62.204c11.631-82.385,34.147-162.525,61.345-240.582
			c27.237-78.129,60.326-153.958,95.848-228.435c71.453-148.846,154.143-291.812,242.294-431.028
			c44.036-69.658,90.187-137.939,137.292-205.518c47.292-67.478,95.575-134.154,146.085-199.397l4.67-6.033l4.593,6.033
			c20.027,26.303,39.494,52.849,58.8,79.58c19.301,26.716,38.322,53.629,57.156,80.668c37.651,54.091,74.417,108.789,110.264,164.08
			c71.683,110.577,139.816,223.496,202.58,339.356c31.275,57.979,61.616,116.478,89.766,176.044
			c14.066,29.783,27.806,59.725,40.754,90.014c12.968,30.277,25.504,60.745,37.145,91.56
			c23.258,61.616,43.859,124.333,59.144,188.427C1884.339,1373.104,1894.889,1438.616,1894.837,1504.548z M1894.837,1504.548
			c-0.217-65.931-11.029-131.36-26.524-195.261c-15.535-63.987-36.375-126.572-59.863-188.043
			c-11.757-30.743-24.406-61.136-37.487-91.335c-13.06-30.211-26.911-60.074-41.086-89.775
			c-14.16-29.711-28.941-59.123-44.036-88.368c-15.038-29.276-30.658-58.251-46.646-87.018
			c-63.908-115.1-133.134-227.179-205.868-336.865c-36.372-54.844-73.653-109.082-111.802-162.693
			c-19.083-26.799-38.349-53.467-57.887-79.928c-19.524-26.452-39.281-52.809-59.416-78.692l9.262,0
			c-49.56,65.409-97.139,132.561-143.591,200.33c-46.432,67.819-91.302,136.685-135.108,206.191
			c-87.322,139.15-169.128,281.953-239.54,430.18c-35.201,74.088-67.083,149.712-94.6,226.798
			c-27.226,77.114-49.727,156.135-61.437,236.777c-2.7,20.125-5.134,40.464-6.201,60.567c-0.265,5.053-0.706,10.009-0.833,15.143
			l-0.343,15.424c-0.349,9.954,0.197,20.354,0.25,30.509c0.331,40.869,3.519,81.639,8.187,122.178l4.123,30.332
			c1.333,10.118,3.469,20.1,5.162,30.158l2.695,15.061c0.919,5.016,2.177,9.959,3.248,14.943c2.27,9.938,4.37,19.921,6.777,29.825
			c10.058,39.52,22.685,78.332,37.773,116.171c30.673,75.431,73.389,146.142,127.974,206.67
			c54.799,60.257,121.455,109.722,195.353,144.328c36.915,17.354,75.547,31.093,115.137,41.202
			c39.617,9.923,80.251,16.208,120.943,19.094c81.674,5.714,164.462-1.152,243.357-23.595
			c78.868-22.125,153.606-59.416,218.196-110.135c64.61-50.79,118.034-115.045,159.338-185.977
			c20.871-35.41,37.951-72.96,52.62-111.324c7.659-19.086,13.599-38.782,19.962-58.324c5.423-19.827,11.25-39.555,15.446-59.695
			c4.973-19.964,8.129-40.301,11.959-60.503l4.325-30.541l2.097-15.28l1.515-15.35c0.975-10.236,2.099-20.461,2.952-30.708
			l1.815-30.797c0.274-5.134,0.669-10.264,0.844-15.403l0.318-15.425L1894.837,1504.548z"/>
	</g>
	<g>
		<path opacity="0.7" fill="#FFFFFF" d="M1319.082,383.897c0,0,546.615,571.954,448.876,1238.028
			c-97.739,666.073-405.436,188.238-242.538-79.639S1670.219,948.612,1319.082,383.897z"/>
		<path fill="#009FE3" d="M1319.082,383.897c0,0,9.523,9.695,26.445,28.744c16.879,19.077,41.314,47.395,70.46,85.014
			c29.142,37.604,63.439,84.193,99.604,139.807c36.173,55.581,74.467,120.064,110.886,193.251
			c36.668,73.031,70.852,155.066,99.265,244.471c28.659,89.294,49.347,186.798,58.101,289.005
			c9.346,102.146,2.686,209.162-16.205,314.953c-9.698,52.922-21.773,106.085-40.866,157.725
			c-9.555,25.776-21.006,51.187-36.486,74.838c-7.846,11.739-16.667,23.089-27.451,33.016
			c-10.731,9.867-23.734,18.352-38.844,22.517c-15.08,4.117-31.869,2.665-45.941-3.283c-14.172-5.914-26.217-15.071-36.292-25.444
			c-20.067-20.978-33.983-45.967-44.536-71.709c-10.534-25.825-17.692-52.714-22.142-79.894
			c-4.438-27.191-6.068-54.706-5.073-82.039c2.091-54.589,15.57-108.808,41.711-156.122c6.631-11.381,13.242-22.728,19.831-34.037
			c3.212-5.626,6.076-11.274,9.126-16.894c3.013-5.62,6.063-11.202,8.752-17.013c2.78-5.751,5.555-11.492,8.324-17.221
			c2.68-5.77,5.083-11.649,7.632-17.451c5.27-11.539,9.367-23.49,13.949-35.194c16.953-47.346,27.651-95.89,33.355-143.97
			c5.291-48.159,5.222-95.845,1.257-141.948c-3.955-46.127-11.74-90.673-21.642-133.205c-2.652-10.594-4.821-21.216-7.806-31.537
			c-2.848-10.358-5.67-20.623-8.466-30.793c-6.266-20.151-12.122-40.023-18.938-59.151c-6.332-19.29-13.547-37.827-20.297-56.056
			c-7.08-18.102-14.199-35.718-21.266-52.84c-14.39-34.142-28.767-66.245-43.064-96.051
			c-28.448-59.689-55.549-110.65-78.682-152.143c-11.414-20.838-22.002-39.22-31.187-55.233c-4.589-8.009-8.834-15.42-12.724-22.21
			c-3.992-6.73-7.619-12.843-10.867-18.318C1326.012,395.58,1319.082,383.897,1319.082,383.897z M1319.082,383.897
			c0,0,7.241,11.493,20.818,33.043c3.395,5.389,7.186,11.406,11.359,18.029c4.072,6.686,8.516,13.983,13.32,21.87
			c4.797,7.893,9.952,16.376,15.452,25.425c5.453,9.078,11.01,18.865,17.014,29.13c23.985,41.073,52.141,91.557,81.864,150.843
			c29.646,59.285,61.243,127.343,88.42,204.529c7.098,19.182,13.251,39.146,19.817,59.398c2.948,10.233,5.924,20.562,8.927,30.983
			c3.139,10.386,5.469,21.099,8.278,31.777c10.537,42.887,18.987,87.941,23.584,134.812c4.604,46.844,5.286,95.52,0.464,144.916
			c-5.035,49.36-16.257,99.223-33.332,147.902c-4.642,12.029-8.814,24.313-14.162,36.166c-2.588,5.96-5.034,12.001-7.757,17.926
			c-2.813,5.883-5.632,11.777-8.456,17.681c-2.723,5.941-5.857,11.746-8.954,17.577c-3.115,5.798-6.126,11.757-9.347,17.45
			c-6.478,11.219-12.977,22.476-19.496,33.766c-24.454,44.68-37.142,96.234-38.925,148.416c-0.843,26.114,0.82,52.441,5.165,78.389
			c4.349,25.931,11.297,51.526,21.31,75.785c9.971,24.176,23.223,47.301,40.859,65.545c8.819,9.038,18.979,16.462,29.922,20.981
			c10.942,4.522,22.698,5.337,33.849,2.405c11.169-3.042,21.691-9.582,30.91-18.012c9.255-8.439,17.295-18.613,24.548-29.38
			c7.335-10.745,13.399-22.501,19.339-34.266c5.602-11.986,10.874-24.163,15.502-36.642c18.687-49.882,30.854-102.233,40.617-154.4
			c19.082-104.612,26.027-209.473,17.23-310.409c-1.17-12.593-2.335-25.134-3.495-37.619c-0.307-3.12-0.54-6.244-0.907-9.35
			l-1.308-9.283c-0.87-6.182-1.739-12.35-2.605-18.503c-0.866-6.153-1.729-12.292-2.591-18.416
			c-0.828-6.129-1.693-12.237-2.895-18.276c-2.21-12.111-4.409-24.161-6.596-36.146c-1.971-12.031-4.84-23.813-7.487-35.572
			c-2.7-11.747-5.231-23.465-8.024-35.047c-3.096-11.508-6.173-22.946-9.23-34.311c-1.529-5.684-3.052-11.349-4.571-16.996
			c-1.717-5.59-3.428-11.162-5.134-16.714c-27.077-88.917-60.019-170.796-95.594-243.837
			c-35.527-73.085-72.293-138.043-107.202-194.168c-34.936-56.129-68.223-103.279-96.561-141.383
			c-28.443-38.037-51.856-67.139-68.279-86.593C1328.344,393.843,1319.082,383.897,1319.082,383.897z"/>
	</g>
</g>
</svg>
